<?xml version="1.0" encoding="UTF-8" standalone="no"?>
<svg
   width="106.073"
   height="190.79"
   version="1.1"
   id="svg1027"
   sodipodi:docname="AC524_c.svg"
   inkscape:version="1.2.2 (b0a8486541, 2022-12-01)"
   xmlns:inkscape="http://www.inkscape.org/namespaces/inkscape"
   xmlns:sodipodi="http://sodipodi.sourceforge.net/DTD/sodipodi-0.dtd"
   xmlns:xlink="http://www.w3.org/1999/xlink"
   xmlns="http://www.w3.org/2000/svg"
   xmlns:svg="http://www.w3.org/2000/svg">
  <sodipodi:namedview
     id="namedview1029"
     pagecolor="#ffffff"
     bordercolor="#666666"
     borderopacity="1.0"
     inkscape:showpageshadow="2"
     inkscape:pageopacity="0.0"
     inkscape:pagecheckerboard="0"
     inkscape:deskcolor="#d1d1d1"
     showgrid="false"
     inkscape:zoom="51.454206"
     inkscape:cx="41.298859"
     inkscape:cy="21.912689"
     inkscape:window-width="2476"
     inkscape:window-height="1363"
     inkscape:window-x="2644"
     inkscape:window-y="40"
     inkscape:window-maximized="1"
     inkscape:current-layer="svg1027" />
  <defs
     id="defs979">
    <clipPath
       id="b">
      <path
         d="M42 179h1v10.86h-1Zm0 0"
         id="path969" />
    </clipPath>
    <clipPath
       id="c">
      <path
         d="M36 189h13v.86H36Zm0 0"
         id="path972" />
    </clipPath>
    <clipPath
       id="d">
      <path
         d="M84 54h21.152v39H84Zm0 0"
         id="path975" />
    </clipPath>
    <path
       id="a"
       d="M2.469-3.016h1.547v.47H2.469v1.655h-.5v-1.656H.422v-.469h1.547v-1.64h.5Zm0 0" />
  </defs>
  <use
     xlink:href="#a"
     x="40.155"
     y="8.343"
     id="use981" />
  <path
     fill="none"
     stroke="#000000"
     stroke-miterlimit="10"
     stroke-width="0.395545"
     d="m 42.379,15.996017 0,19.066983 m 0,9.441 v 20.61 m 0,16.886 v 16.887 m 0,0 v 16.886"
     id="path983"
     sodipodi:nodetypes="cccccccc" />
  <path
     fill="#FFF"
     stroke="#000"
     stroke-miterlimit="10"
     stroke-width=".39554466000000005"
     d="M43.95 14.453c0-.867-.704-1.574-1.571-1.574a1.575 1.575 0 0 0 0 3.148c.867 0 1.57-.703 1.57-1.574Zm0 0"
     id="path985"
     style="fill:none" />
  <path
     fill="none"
     stroke="#000"
     stroke-miterlimit="10"
     stroke-width=".7900979800000001"
     d="m42.379 44.504 5.898-9.441h-11.8Zm0 0"
     id="path987" />
  <path
     fill="none"
     stroke="#000"
     stroke-miterlimit="10"
     stroke-width=".39554466000000005"
     d="M42.379 44.504v-9.441"
     id="path989" />
  <path
     fill="none"
     stroke="#000"
     stroke-miterlimit="10"
     stroke-width=".7900979800000001"
     d="M36.477 44.504h11.8M50.312 141.106c0-8.06-6.53-14.59-14.59-14.59-8.058 0-14.59 6.53-14.59 14.59 0 8.054 6.532 14.585 14.59 14.585 8.06 0 14.59-6.53 14.59-14.585Zm0 0"
     id="path991" />
  <path
     fill="none"
     stroke="#000"
     stroke-miterlimit="10"
     stroke-width=".39554466000000005"
     d="M42.379 119.27v13.18l-11.805 5.41"
     id="path993" />
  <path
     fill="none"
     stroke="#000"
     stroke-miterlimit="10"
     stroke-width=".7900979800000001"
     d="M30.574 132.45v17.308"
     id="path995" />
  <path
     fill="none"
     stroke="#000"
     stroke-miterlimit="10"
     stroke-width=".39554466000000005"
     d="m30.574 144.348 11.805 5.41v13.18"
     id="path997" />
  <path
     d="m34.73 146.254.946-2.059 3.66 4.168-5.547-.047Zm0 0"
     id="path999" />
  <path
     fill="none"
     stroke="#000"
     stroke-miterlimit="10"
     stroke-width=".39554466000000005"
     d="M30.574 141.106h-12M42.379 162.742v8.442m0 0v8.445"
     id="path1001" />
  <g
     clip-path="url(#b)"
     id="g1005">
    <path
       fill="none"
       stroke="#000"
       stroke-miterlimit="10"
       stroke-width=".39554466000000005"
       d="M42.379 179.629v9.836"
       id="path1003" />
  </g>
  <g
     clip-path="url(#c)"
     id="g1009">
    <path
       fill="none"
       stroke="#000"
       stroke-linecap="round"
       stroke-miterlimit="10"
       stroke-width=".7900979800000001"
       d="M36.477 189.465h11.8"
       id="path1007" />
  </g>
  <path
     fill="none"
     stroke="#000"
     stroke-dasharray="2.9629467322000003 2.9629467322000003"
     stroke-miterlimit="10"
     stroke-width=".39554466000000005"
     d="M18.773 141.106H.195"
     id="path1011" />
  <path
     fill="none"
     stroke="#000"
     stroke-miterlimit="10"
     stroke-width=".39554466000000005"
     d="M25.492 82V65.113h33.774V82ZM33.934 82 50.82 65.113"
     id="path1013" />
  <path
     fill="none"
     stroke="#000"
     stroke-dasharray="2.9629467322000003 2.9629467322000003"
     stroke-miterlimit="10"
     stroke-width=".39554466000000005"
     d="M59.266 73.559h40.527M93.039 31.34v16.887"
     id="path1015" />
  <path
     fill="none"
     stroke="#000"
     stroke-miterlimit="10"
     stroke-width=".39554466000000005"
     d="M93.039 48.227v15.496m0 19.668v15.496"
     id="path1017" />
  <g
     clip-path="url(#d)"
     id="g1021">
    <path
       fill="none"
       stroke="#000"
       stroke-linecap="round"
       stroke-miterlimit="10"
       stroke-width=".6295009"
       d="m93.039 63.723 11.8 19.668"
       id="path1019" />
  </g>
  <path
     stroke="#000"
     stroke-miterlimit="10"
     stroke-width=".39554466000000005"
     d="M93.039 65.297a1.574 1.574 0 0 0 0-3.148 1.575 1.575 0 0 0 0 3.148ZM93.039 84.965c.867 0 1.57-.703 1.57-1.574a1.57 1.57 0 0 0-1.57-1.57 1.571 1.571 0 1 0 0 3.144Zm0 0"
     id="path1023" />
  <path
     fill="none"
     stroke="#000"
     stroke-dasharray="2.9629467322000003 2.9629467322000003"
     stroke-miterlimit="10"
     stroke-width=".39554466000000005"
     d="M93.039 115.773V98.887"
     id="path1025" />
</svg>
